<svg width="224" height="178" viewBox="0 0 224 178" fill="none" xmlns="http://www.w3.org/2000/svg">
<path d="M108.25 129.99L79.6553 101.937L113.629 68.6064H170.819L108.25 129.99Z" fill="#7F1D1D"/>
<path d="M106.808 65.5498L74.6855 97.0615L42 64.9951L74.1211 33.4814L106.808 65.5498Z" fill="#7F1D1D"/>
<path d="M170.99 61.5518V61.7119H112.833L79.0889 28.6074L108.25 0L170.99 61.5518Z" fill="#7F1D1D"/>
<path d="M21.5653 159.5H18.483C18.3007 158.613 17.9817 157.835 17.5259 157.163C17.0785 156.492 16.5316 155.929 15.8853 155.473C15.2473 155.009 14.5388 154.661 13.7599 154.429C12.9811 154.197 12.169 154.081 11.3239 154.081C9.78267 154.081 8.38648 154.47 7.1353 155.249C5.8924 156.028 4.90222 157.176 4.16477 158.692C3.4356 160.208 3.07102 162.069 3.07102 164.273C3.07102 166.477 3.4356 168.337 4.16477 169.853C4.90222 171.37 5.8924 172.517 7.1353 173.296C8.38648 174.075 9.78267 174.464 11.3239 174.464C12.169 174.464 12.9811 174.348 13.7599 174.116C14.5388 173.884 15.2473 173.541 15.8853 173.085C16.5316 172.621 17.0785 172.053 17.5259 171.382C17.9817 170.703 18.3007 169.924 18.483 169.045H21.5653C21.3333 170.346 20.9107 171.511 20.2976 172.538C19.6844 173.565 18.9221 174.44 18.0107 175.161C17.0992 175.873 16.0759 176.416 14.9407 176.789C13.8138 177.162 12.6082 177.348 11.3239 177.348C9.15293 177.348 7.2223 176.818 5.53196 175.757C3.84162 174.697 2.51172 173.188 1.54226 171.233C0.572796 169.277 0.0880661 166.957 0.0880661 164.273C0.0880661 161.588 0.572796 159.268 1.54226 157.312C2.51172 155.357 3.84162 153.849 5.53196 152.788C7.2223 151.728 9.15293 151.197 11.3239 151.197C12.6082 151.197 13.8138 151.384 14.9407 151.757C16.0759 152.13 17.0992 152.676 18.0107 153.397C18.9221 154.11 19.6844 154.98 20.2976 156.007C20.9107 157.027 21.3333 158.191 21.5653 159.5Z" fill="white"/>
<path d="M33.9042 177.398C32.1807 177.398 30.6685 176.988 29.3676 176.167C28.075 175.347 27.0641 174.199 26.335 172.724C25.6141 171.25 25.2536 169.526 25.2536 167.554C25.2536 165.565 25.6141 163.829 26.335 162.346C27.0641 160.863 28.075 159.711 29.3676 158.891C30.6685 158.071 32.1807 157.661 33.9042 157.661C35.6277 157.661 37.1357 158.071 38.4284 158.891C39.7293 159.711 40.7401 160.863 41.461 162.346C42.1902 163.829 42.5548 165.565 42.5548 167.554C42.5548 169.526 42.1902 171.25 41.461 172.724C40.7401 174.199 39.7293 175.347 38.4284 176.167C37.1357 176.988 35.6277 177.398 33.9042 177.398ZM33.9042 174.763C35.2134 174.763 36.2906 174.427 37.1357 173.756C37.9809 173.085 38.6065 172.202 39.0125 171.109C39.4185 170.015 39.6215 168.83 39.6215 167.554C39.6215 166.278 39.4185 165.089 39.0125 163.987C38.6065 162.885 37.9809 161.994 37.1357 161.315C36.2906 160.635 35.2134 160.295 33.9042 160.295C32.595 160.295 31.5178 160.635 30.6727 161.315C29.8275 161.994 29.2019 162.885 28.7959 163.987C28.3899 165.089 28.1869 166.278 28.1869 167.554C28.1869 168.83 28.3899 170.015 28.7959 171.109C29.2019 172.202 29.8275 173.085 30.6727 173.756C31.5178 174.427 32.595 174.763 33.9042 174.763Z" fill="white"/>
<path d="M49.9656 165.516V177H47.0323V157.909H49.8661V160.892H50.1147C50.5621 159.923 51.2416 159.144 52.1531 158.555C53.0645 157.959 54.2411 157.661 55.6829 157.661C56.9755 157.661 58.1065 157.926 59.076 158.456C60.0455 158.978 60.7995 159.773 61.3381 160.842C61.8767 161.903 62.146 163.245 62.146 164.869V177H59.2127V165.068C59.2127 163.568 58.8233 162.4 58.0444 161.563C57.2655 160.718 56.1966 160.295 54.8377 160.295C53.9014 160.295 53.0645 160.498 52.3271 160.904C51.5979 161.31 51.022 161.903 50.5994 162.682C50.1768 163.461 49.9656 164.405 49.9656 165.516Z" fill="white"/>
<path d="M75.8085 157.909V160.395H65.915V157.909H75.8085ZM68.7986 153.335H71.7318V171.531C71.7318 172.36 71.8519 172.981 72.0922 173.396C72.3408 173.802 72.6557 174.075 73.0368 174.216C73.4263 174.348 73.8364 174.415 74.2673 174.415C74.5905 174.415 74.8556 174.398 75.0628 174.365C75.2699 174.324 75.4356 174.29 75.5599 174.266L76.1565 176.901C75.9577 176.975 75.6801 177.05 75.3238 177.124C74.9675 177.207 74.5159 177.249 73.969 177.249C73.1404 177.249 72.3284 177.07 71.5329 176.714C70.7458 176.358 70.0912 175.815 69.5692 175.086C69.0554 174.357 68.7986 173.437 68.7986 172.327V153.335Z" fill="white"/>
<path d="M80.2208 177V157.909H83.0546V160.793H83.2535C83.6015 159.848 84.2312 159.082 85.1427 158.493C86.0541 157.905 87.0816 157.611 88.2251 157.611C88.4405 157.611 88.7098 157.615 89.0329 157.623C89.3561 157.632 89.6005 157.644 89.7662 157.661V160.643C89.6668 160.619 89.4389 160.581 89.0826 160.532C88.7346 160.474 88.3659 160.445 87.9765 160.445C87.0484 160.445 86.2198 160.639 85.4907 161.029C84.7698 161.41 84.1981 161.94 83.7755 162.62C83.3612 163.291 83.154 164.057 83.154 164.919V177H80.2208Z" fill="white"/>
<path d="M93.2432 177V157.909H96.1765V177H93.2432ZM94.7347 154.727C94.163 154.727 93.67 154.533 93.2557 154.143C92.8497 153.754 92.6467 153.286 92.6467 152.739C92.6467 152.192 92.8497 151.724 93.2557 151.334C93.67 150.945 94.163 150.75 94.7347 150.75C95.3065 150.75 95.7953 150.945 96.2013 151.334C96.6156 151.724 96.8228 152.192 96.8228 152.739C96.8228 153.286 96.6156 153.754 96.2013 154.143C95.7953 154.533 95.3065 154.727 94.7347 154.727Z" fill="white"/>
<path d="M117.16 157.909L110.1 177H107.117L100.057 157.909H103.239L108.509 173.122H108.708L113.978 157.909H117.16Z" fill="white"/>
<path d="M134.685 159.177C134.603 158.265 134.234 157.557 133.579 157.051C132.933 156.538 132.009 156.281 130.808 156.281C130.012 156.281 129.349 156.384 128.819 156.592C128.289 156.799 127.891 157.085 127.626 157.449C127.361 157.806 127.224 158.216 127.216 158.68C127.199 159.061 127.274 159.396 127.439 159.686C127.613 159.976 127.862 160.233 128.185 160.457C128.516 160.672 128.914 160.863 129.378 161.029C129.842 161.194 130.364 161.339 130.944 161.464L133.132 161.961C134.391 162.234 135.502 162.599 136.463 163.055C137.432 163.51 138.244 164.053 138.899 164.683C139.562 165.313 140.063 166.038 140.403 166.858C140.742 167.678 140.916 168.598 140.925 169.617C140.916 171.225 140.51 172.604 139.707 173.756C138.903 174.908 137.747 175.79 136.239 176.403C134.739 177.017 132.929 177.323 130.808 177.323C128.678 177.323 126.822 177.004 125.239 176.366C123.657 175.728 122.426 174.759 121.548 173.458C120.67 172.157 120.218 170.512 120.193 168.523H126.085C126.134 169.344 126.354 170.027 126.743 170.574C127.133 171.121 127.667 171.535 128.347 171.817C129.034 172.099 129.83 172.24 130.733 172.24C131.562 172.24 132.266 172.128 132.846 171.904C133.434 171.68 133.886 171.37 134.201 170.972C134.515 170.574 134.677 170.118 134.685 169.605C134.677 169.124 134.528 168.714 134.238 168.374C133.948 168.026 133.5 167.728 132.896 167.479C132.299 167.223 131.537 166.986 130.609 166.771L127.949 166.15C125.745 165.644 124.009 164.828 122.741 163.701C121.473 162.566 120.844 161.033 120.852 159.102C120.844 157.528 121.266 156.148 122.12 154.963C122.973 153.779 124.154 152.855 125.662 152.192C127.17 151.529 128.889 151.197 130.82 151.197C132.792 151.197 134.503 151.533 135.953 152.204C137.411 152.867 138.542 153.799 139.346 155.001C140.15 156.202 140.56 157.594 140.577 159.177H134.685Z" fill="#7F1D1D"/>
<path d="M144.032 177V157.909H149.811V161.414H150.023C150.42 160.254 151.092 159.338 152.036 158.667C152.981 157.996 154.108 157.661 155.417 157.661C156.743 157.661 157.878 158 158.822 158.68C159.767 159.359 160.368 160.271 160.625 161.414H160.824C161.18 160.279 161.876 159.372 162.912 158.692C163.947 158.004 165.17 157.661 166.578 157.661C168.384 157.661 169.851 158.241 170.978 159.401C172.105 160.552 172.668 162.135 172.668 164.148V177H166.591V165.54C166.591 164.588 166.346 163.863 165.857 163.365C165.368 162.86 164.734 162.607 163.956 162.607C163.119 162.607 162.46 162.881 161.979 163.428C161.507 163.966 161.271 164.691 161.271 165.603V177H155.429V165.478C155.429 164.592 155.189 163.892 154.708 163.378C154.228 162.864 153.594 162.607 152.807 162.607C152.277 162.607 151.808 162.736 151.402 162.993C150.996 163.241 150.677 163.597 150.445 164.061C150.222 164.525 150.11 165.072 150.11 165.702V177H144.032Z" fill="#7F1D1D"/>
<path d="M181.816 177.323C180.598 177.323 179.517 177.12 178.572 176.714C177.636 176.3 176.894 175.678 176.347 174.85C175.809 174.013 175.539 172.965 175.539 171.705C175.539 170.645 175.726 169.75 176.099 169.021C176.472 168.291 176.985 167.699 177.64 167.243C178.295 166.788 179.049 166.444 179.902 166.212C180.755 165.971 181.667 165.81 182.636 165.727C183.722 165.627 184.596 165.524 185.259 165.416C185.922 165.3 186.402 165.139 186.701 164.931C187.007 164.716 187.161 164.414 187.161 164.024V163.962C187.161 163.324 186.941 162.831 186.502 162.483C186.063 162.135 185.47 161.961 184.724 161.961C183.921 161.961 183.274 162.135 182.786 162.483C182.297 162.831 181.986 163.312 181.853 163.925L176.248 163.726C176.414 162.566 176.84 161.53 177.528 160.619C178.224 159.699 179.177 158.978 180.387 158.456C181.605 157.926 183.067 157.661 184.774 157.661C185.992 157.661 187.115 157.806 188.142 158.096C189.17 158.377 190.065 158.792 190.827 159.338C191.589 159.877 192.178 160.54 192.592 161.327C193.015 162.114 193.226 163.013 193.226 164.024V177H187.509V174.34H187.359C187.02 174.987 186.585 175.533 186.054 175.981C185.532 176.428 184.915 176.764 184.202 176.988C183.498 177.211 182.703 177.323 181.816 177.323ZM183.693 173.346C184.347 173.346 184.936 173.213 185.458 172.948C185.988 172.683 186.411 172.318 186.726 171.854C187.04 171.382 187.198 170.835 187.198 170.214V168.399C187.024 168.49 186.812 168.573 186.564 168.648C186.324 168.722 186.058 168.793 185.768 168.859C185.478 168.925 185.18 168.983 184.874 169.033C184.567 169.083 184.273 169.128 183.991 169.17C183.419 169.261 182.931 169.402 182.524 169.592C182.127 169.783 181.82 170.031 181.605 170.338C181.398 170.636 181.294 170.993 181.294 171.407C181.294 172.037 181.518 172.517 181.965 172.849C182.421 173.18 182.997 173.346 183.693 173.346Z" fill="#7F1D1D"/>
<path d="M196.942 177V157.909H202.846V161.389H203.045C203.393 160.13 203.96 159.193 204.748 158.58C205.535 157.959 206.45 157.648 207.494 157.648C207.776 157.648 208.066 157.669 208.364 157.71C208.663 157.743 208.94 157.797 209.197 157.872V163.154C208.907 163.055 208.526 162.976 208.054 162.918C207.59 162.86 207.175 162.831 206.811 162.831C206.09 162.831 205.439 162.993 204.859 163.316C204.288 163.631 203.836 164.074 203.505 164.646C203.181 165.209 203.02 165.872 203.02 166.634V177H196.942Z" fill="#7F1D1D"/>
<path d="M223.338 157.909V162.384H211.294V157.909H223.338ZM213.818 153.335H219.895V170.997C219.895 171.37 219.953 171.672 220.069 171.904C220.194 172.128 220.372 172.289 220.604 172.389C220.836 172.48 221.113 172.526 221.437 172.526C221.669 172.526 221.913 172.505 222.17 172.463C222.435 172.414 222.634 172.372 222.766 172.339L223.686 176.727C223.396 176.809 222.986 176.913 222.456 177.037C221.934 177.162 221.308 177.24 220.579 177.273C219.154 177.34 217.932 177.174 216.912 176.776C215.901 176.37 215.127 175.741 214.588 174.887C214.058 174.034 213.801 172.961 213.818 171.668V153.335Z" fill="#7F1D1D"/>
</svg>
